# xmcd
#
# Track frame offsets:
#  182
#  12997
#  26815
#  39337
#  53172
#  65572
#  79207
#  91987
#  104302
#  117260
#  130447
#  142667
#  156232
#  170085
#  186250
#  200492
#  219832
#  232740
#  251607
#  265532
#
# Disc length: 3732 seconds
#
# Revision: 0
# Processed by: cddbd v1.4PL0 Copyright (c) Steve Scherf et al.
# Submitted via: AltoMP3_Maker 3.0
#
DISCID=0f0e9214
DTITLE=Don Williams - The Best From Don
DYEAR=1900
DGENRE=
TTITLE0=Your´re My Best Friend
TTITLE1=Say It Again
TTITLE2=Some Broken Hearts Never Mend
TTITLE3=Steal My Heart Away
TTITLE4=Years From Now
TTITLE5=Miracles
TTITLE6=Falling Again
TTITLE7=Expert At Everything
TTITLE8=Atta Way To
TTITLE9=Help Yourselves to Each Other
TTITLE10=Don´t You Believe
TTITLE11=The Shelter Of Your Eyes
TTITLE12=We Should Be Together
TTITLE13=Till The River All Run Dry
TTITLE14=I´ll Need Someone To Hold Me (When I Cry)
TTITLE15=Good Ole Boys Like Me
TTITLE16=I Want You Back Again
TTITLE17=Lord I Hope This Day Is Good
TTITLE18=Walkin´ A Broken Heart
TTITLE19=Listen To The Radio
EXTD=
EXTT0=
EXTT1=
EXTT2=
EXTT3=
EXTT4=
EXTT5=
EXTT6=
EXTT7=
EXTT8=
EXTT9=
EXTT10=
EXTT11=
EXTT12=
EXTT13=
EXTT14=
EXTT15=
EXTT16=
EXTT17=
EXTT18=
EXTT19=
PLAYORDER=
